<?xml version="1.0" encoding="UTF-8"?>
<svg version="1.1" xmlns="http://www.w3.org/2000/svg" width="453" height="111">
<path d="M0 0 C149.49 0 298.98 0 453 0 C453 36.63 453 73.26 453 111 C303.51 111 154.02 111 0 111 C0 74.37 0 37.74 0 0 Z " fill="#FBFCFB" transform="translate(0,0)"/>
<path d="M0 0 C9.0752173 5.13071341 14.4544848 13.13238314 17.39208984 23.07495117 C21.53696587 38.95594553 20.80525866 56.38168492 12.73046875 70.96484375 C6.92238054 79.62602793 -1.24721454 85.33225711 -11.51953125 87.40234375 C-22.21975504 88.29118023 -31.10960344 86.48926159 -39.41796875 79.47265625 C-49.80537763 69.23970698 -53.59907192 56.14422235 -53.76953125 41.83984375 C-53.74704472 27.90622775 -50.3763133 15.32756648 -40.64453125 4.96484375 C-29.46845383 -5.50334393 -13.48348534 -6.56887747 0 0 Z " fill="#232B3A" transform="translate(265.51953125,14.59765625)"/>
<path d="M0 0 C49.25 0 49.25 0 58 7 C63.28965024 12.56805288 65.55045841 18.15592389 65.4375 25.8125 C65.43137695 26.51737549 65.42525391 27.22225098 65.41894531 27.94848633 C65.24524459 33.75476694 64.11481348 38.13310393 61 43 C60.4225 43.928125 59.845 44.85625 59.25 45.8125 C56.05389463 48.91982466 51.61079292 52 47 52 C48.95683245 56.05697791 50.914037 60.11377602 52.87158203 64.17041016 C53.53704823 65.5495929 54.20241389 66.92882416 54.86767578 68.30810547 C55.82557986 70.29407402 56.78384897 72.27986607 57.7421875 74.265625 C58.03809784 74.87931946 58.33400818 75.49301392 58.6388855 76.12530518 C59.7928752 78.51575687 60.94412996 80.89632878 62.20361328 83.23339844 C63 85 63 85 63 88 C58.38 88 53.76 88 49 88 C44.46888897 79.60562876 39.98835924 71.2014139 35.9375 62.5625 C35.4897522 61.61491821 35.4897522 61.61491821 35.03295898 60.64819336 C33 56.25163897 33 56.25163897 33 54 C26.4 54 19.8 54 13 54 C13 65.55 13 77.1 13 89 C8.71 89 4.42 89 0 89 C0 59.63 0 30.26 0 0 Z " fill="#242D3B" transform="translate(131,12)"/>
<path d="M0 0 C3.97551597 2.73360086 3.97551597 2.73360086 5.55078125 4.5390625 C5.55078125 8.5390625 5.55078125 8.5390625 4.01953125 10.4609375 C3.36984375 11.06421875 2.72015625 11.6675 2.05078125 12.2890625 C1.40109375 12.90265625 0.75140625 13.51625 0.08203125 14.1484375 C-0.42328125 14.60734375 -0.92859375 15.06625 -1.44921875 15.5390625 C-3.61022945 14.49890797 -5.4442568 13.54303206 -7.32421875 12.0390625 C-11.99575059 8.74151061 -16.90971149 8.22502014 -22.51171875 8.1640625 C-24.29255859 8.12152344 -24.29255859 8.12152344 -26.109375 8.078125 C-30.04835984 8.62175098 -31.65003308 9.77582967 -34.44921875 12.5390625 C-35.99946339 15.63955178 -35.7391389 18.11800468 -35.44921875 21.5390625 C-32.61656453 26.05210482 -29.95338451 27.48422514 -24.94921875 29.1015625 C-23.08716797 29.72417969 -23.08716797 29.72417969 -21.1875 30.359375 C-18.85531769 31.09534058 -16.51985712 31.821091 -14.1796875 32.53125 C-4.23023833 35.622093 3.07010993 39.46170062 8.55078125 48.5390625 C10.85298615 55.44567721 10.28608512 63.68166747 7.6484375 70.44140625 C4.20904139 77.01420237 -0.3145606 81.05460605 -7.140625 83.84765625 C-19.25480164 87.47575991 -31.2979927 86.36910376 -42.44921875 80.5390625 C-50.93370562 75.08560188 -50.93370562 75.08560188 -52.44921875 70.5390625 C-49.80921875 67.8990625 -47.16921875 65.2590625 -44.44921875 62.5390625 C-41.62544975 63.950947 -39.18137164 65.32190156 -36.57421875 67.0390625 C-29.15460822 71.65419639 -21.67931596 72.93828105 -13.06640625 71.00390625 C-10.1932323 70.03381246 -7.8040971 68.82740116 -5.44921875 66.9140625 C-3.84787536 63.11087194 -3.70920338 59.5873819 -4.44921875 55.5390625 C-8.40529752 49.60494434 -15.16539924 47.99154505 -21.63671875 45.79736328 C-42.4960756 38.71584867 -42.4960756 38.71584867 -48.44921875 29.4140625 C-50.71602534 22.85069439 -50.72184158 14.45614816 -47.88671875 8.1015625 C-37.74197487 -8.74722541 -15.52724159 -9.2618634 0 0 Z " fill="#212A39" transform="translate(351.44921875,16.4609375)"/>
<path d="M0 0 C6.09805068 2.66711457 10.23807212 8.09910424 12.625 14.1875 C16.29095238 26.61100529 16.29666288 39.34815709 11.234375 51.30078125 C8.28322571 56.66721326 4.7550361 61.14926756 -1.25 63 C-8.90700998 63.92088761 -16.39747851 64.38319843 -22.7421875 59.48046875 C-29.81774658 52.53322292 -31.62912132 44.18913626 -31.81982422 34.65893555 C-31.81740723 33.53398682 -31.81499023 32.40903809 -31.8125 31.25 C-31.81008301 30.09218018 -31.80766602 28.93436035 -31.80517578 27.74145508 C-31.5989422 18.20011918 -30.27253008 11.47800462 -23.65625 4.26171875 C-16.87267525 -1.88156961 -8.61882602 -2.60921491 0 0 Z " fill="#FAFBFA" transform="translate(257.25,25)"/>
<path d="M0 0 C5.07188349 5.31340175 6.86400943 9.73026709 7.125 17.125 C6.37028934 34.91169436 -7.72750617 46.33418086 -19.703125 58.0859375 C-23.98389745 62.35419307 -28.01913571 66.71620356 -31.375 71.75 C-18.505 71.75 -5.635 71.75 7.625 71.75 C7.625 74.72 7.625 77.69 7.625 80.75 C-9.865 80.75 -27.355 80.75 -45.375 80.75 C-45.375 69.75 -45.375 69.75 -43.16845703 66.84936523 C-42.24661621 66.15657471 -41.32477539 65.46378418 -40.375 64.75 C-39.60913574 63.99984619 -38.84327148 63.24969238 -38.05419922 62.47680664 C-36.87881592 61.3300647 -36.87881592 61.3300647 -35.6796875 60.16015625 C-16.22864914 42.83667286 -16.22864914 42.83667286 -4.94140625 20.30859375 C-4.93158759 14.97705879 -5.78409572 11.93938833 -9.375 7.75 C-13.88633203 3.66160535 -18.62776057 3.41348196 -24.515625 3.45703125 C-29.73893554 3.99220651 -34.48696061 5.92032405 -39.375 7.75 C-41.37266499 8.42363122 -43.37205682 9.09222872 -45.375 9.75 C-45.375 6.12 -45.375 2.49 -45.375 -1.25 C-30.55719958 -7.37469084 -13.79634455 -10.04918924 0 0 Z " fill="#25324A" transform="translate(427.375,18.25)"/>
<path d="M0 0 C4.18153431 -0.06905286 8.3610734 -0.12872548 12.54272461 -0.16479492 C13.96369141 -0.1798376 15.38461213 -0.20027704 16.80541992 -0.22631836 C18.85346886 -0.26290347 20.9009015 -0.27977097 22.94921875 -0.29296875 C24.79519653 -0.31653442 24.79519653 -0.31653442 26.6784668 -0.34057617 C31.49440645 0.15323021 34.91524854 2.29829824 38 6 C39.87664991 11.62994973 39.93749151 17.09029508 37.3125 22.4375 C34.05346054 26.04886805 31.59209972 27.83675273 26.6784668 28.34057617 C25.44781494 28.32486572 24.21716309 28.30915527 22.94921875 28.29296875 C22.29041214 28.28872391 21.63160553 28.28447906 20.95283508 28.28010559 C18.86396115 28.26341196 16.77607861 28.22578058 14.6875 28.1875 C13.26498797 28.17244097 11.8424607 28.15875469 10.41992188 28.14648438 C6.9459323 28.11609963 3.47406594 28.0573699 0 28 C0 18.76 0 9.52 0 0 Z " fill="#FBFCFB" transform="translate(144,25)"/>
<path d="M0 0 C4.99503071 0.4913145 6.31841769 1.88091769 9.8125 5.375 C11.26397903 8.27795805 11.18489025 10.14761779 10.8125 13.375 C8.99939858 16.30437654 6.93954101 18.81147949 3.8125 20.375 C0.5 20.75 0.5 20.75 -3.1875 20.375 C-7.06699018 17.17020377 -8.99576445 15.06866403 -9.5625 10.0625 C-9.09536625 5.46901813 -7.66709782 4.26052015 -4.1875 1.375 C-3.1875 0.375 -3.1875 0.375 0 0 Z " fill="#1F283A" transform="translate(92.1875,11.625)"/>
<path d="M0 0 C3.0216321 0.73251687 4.80104733 2.27158096 6.93359375 4.46875 C8.53446002 7.67048254 8.43276464 10.99452059 7.93359375 14.46875 C6.13995464 17.2787846 4.9147844 18.97815468 1.93359375 20.46875 C-2.24784636 20.86322548 -4.37586673 20.91910186 -7.94140625 18.59375 C-10.82926422 15.70589203 -11.02471419 14.88567062 -11.44140625 10.71875 C-11.38370675 7.55681746 -10.90489259 5.55990525 -9.06640625 2.96875 C-5.69978951 0.16323605 -4.23958901 -0.32057384 0 0 Z " fill="#262E3B" transform="translate(26.06640625,11.53125)"/>
<path d="M0 0 C4.29980658 2.38878143 4.29980658 2.38878143 6 5 C6.80768635 8.49424591 6.75186429 11.49895254 6 15 C4.00305216 18.120231 2.71300264 19.58556388 -0.9375 20.46875 C-5.08159992 20.78269696 -6.61966859 20.30750199 -9.9375 17.625 C-12.9297772 13.81664721 -13.37998996 11.844872 -13 7 C-11.72311154 4.19084539 -10.68900183 2.49893236 -8.1875 0.6875 C-5.17760008 -0.25846855 -3.14801964 -0.44072275 0 0 Z " fill="#222B38" transform="translate(96,46)"/>
<path d="M0 0 C4.92293178 0.4842228 6.64569948 1.59028719 9.8125 5.375 C10.55776995 8.52106321 10.4980981 11.22124876 9.8125 14.375 C8.01856332 17.24529869 6.82986724 18.86631638 3.8125 20.375 C-0.32885035 20.76569343 -2.49936812 20.80882227 -6.0625 18.5625 C-8.80476103 15.73958424 -9.13083136 13.8850178 -9.5625 10 C-9.09233407 5.45506265 -7.63187428 4.23131038 -4.1875 1.375 C-3.1875 0.375 -3.1875 0.375 0 0 Z " fill="#222B38" transform="translate(58.1875,11.625)"/>
<path d="M0 0 C2.625 1.3125 2.625 1.3125 4 4 C4.79655676 9.09641653 5.15228194 13.40167343 2.0625 17.6875 C-2.08969377 19.46701162 -5.56340195 20.05098435 -10 19 C-13.5994734 15.98819573 -14.80084148 14.11528769 -15.625 9.5 C-15.0057893 6.03242009 -14.19937088 3.71075312 -11.76171875 1.10546875 C-8.10665823 -1.18806146 -4.10229674 -0.76788354 0 0 Z " fill="#252A3A" transform="translate(98,81)"/>
<path d="M0 0 C4.10007872 0.38679988 6.11398775 1.78344381 9.3125 4.3125 C10.91336627 7.51423254 10.81167089 10.83827059 10.3125 14.3125 C8.51886089 17.1225346 7.29369065 18.82190468 4.3125 20.3125 C0.13105989 20.70697548 -1.99696048 20.76285186 -5.5625 18.4375 C-8.47460658 15.52539342 -8.64818305 14.7122223 -9.0625 10.5 C-9.04261166 6.85380475 -8.75358692 6.39214321 -6.25 3.375 C-5.404375 2.694375 -4.55875 2.01375 -3.6875 1.3125 C-2.6875 0.3125 -2.6875 0.3125 0 0 Z " fill="#1F2635" transform="translate(23.6875,45.6875)"/>
<path d="M0 0 C2.72438773 2.17951019 3.7398552 3.7403515 4.4453125 7.15625 C4.79461505 11.71237027 4.4474691 13.46521985 1.4375 17.0625 C-2.54335936 19.30625709 -4.50588566 19.73540053 -9 19 C-11.875 17.5625 -11.875 17.5625 -14 15 C-15.29911752 10.70168524 -15.50272137 7.24357391 -13.8125 3.0625 C-9.78735916 -1.51783268 -5.68886296 -1.76028342 0 0 Z " fill="#242B39" transform="translate(64,47)"/>
<path d="M0 0 C3.70718433 0.81785983 5.13329673 2.33819937 7.16015625 5.4765625 C8.01481376 9.59219479 7.56057111 12.62113075 5.78515625 16.4140625 C4.16015625 18.4765625 4.16015625 18.4765625 2.16015625 19.4765625 C-2.25294535 19.99625207 -5.70143526 20.33036887 -9.33984375 17.6015625 C-12.09445489 13.69919672 -12.60437763 10.1806945 -11.83984375 5.4765625 C-8.68903207 0.59788635 -5.54681603 -0.35188482 0 0 Z " fill="#222A38" transform="translate(26.83984375,80.5234375)"/>
<path d="M0 0 C3 2 3 2 5 5 C5.73944481 9.65850231 5.71973922 12.58690581 3 16.5 C-0.02373665 19.01978054 -0.47951714 19.37696615 -4.125 19.4375 C-8 19 -8 19 -11 18 C-13.29534484 15.10956576 -13.97712696 13.18298429 -14.4375 9.5 C-13.92886205 5.4308964 -12.86654931 3.86654931 -10 1 C-6.76823243 -0.61588379 -3.49384717 -0.57451407 0 0 Z " fill="#232B3B" transform="translate(63,81)"/>
<path d="M0 0 C3.83473284 -0.35671933 5.55342875 -0.29771416 8.8125 1.875 C11.94571773 4.91869723 11.94571773 4.91869723 12.09765625 7.9453125 C12.04882812 10.97265625 12.04882812 10.97265625 12 14 C10.3125 15.125 10.3125 15.125 8 16 C4.9006037 15.1144582 3.28724116 14.28724116 1 12 C1.375 8.375 1.375 8.375 2 5 C1.01 5 0.02 5 -1 5 C-0.67 4.34 -0.34 3.68 0 3 C-0.33 2.67 -0.66 2.34 -1 2 C-0.67 1.34 -0.34 0.68 0 0 Z " fill="#222A38" transform="translate(22,12)"/>
<path d="M0 0 C3.8638418 0.70968523 6.06047024 2.04917276 9.0625 4.5625 C9.9375 6.8125 9.9375 6.8125 10.0625 8.5625 C6.90569701 9.40431413 4.33677197 9.5625 1.0625 9.5625 C0.7325 10.2225 0.4025 10.8825 0.0625 11.5625 C-0.9275 11.5625 -1.9175 11.5625 -2.9375 11.5625 C-4.625 9.5625 -4.625 9.5625 -5.9375 7.5625 C-6.5975 8.2225 -7.2575 8.8825 -7.9375 9.5625 C-7.9375 5.5625 -7.9375 5.5625 -5.8125 2.8125 C-2.9375 0.5625 -2.9375 0.5625 0 0 Z " fill="#202839" transform="translate(23.9375,45.4375)"/>
<path d="M0 0 C13.2 0 26.4 0 40 0 C39.67 0.99 39.34 1.98 39 3 C27.45 3 15.9 3 4 3 C4 2.34 4 1.68 4 1 C2.68 0.67 1.36 0.34 0 0 Z " fill="#1C283C" transform="translate(394,90)"/>
<path d="M0 0 C0.99 0.33 1.98 0.66 3 1 C3 1.66 3 2.32 3 3 C2.175 3.763125 1.35 4.52625 0.5 5.3125 C-2.25367551 7.73731432 -2.25367551 7.73731432 -2.3125 10.8125 C-2.1578125 11.8953125 -2.1578125 11.8953125 -2 13 C-1.01 13.33 -0.02 13.66 1 14 C1.66 14.33 2.32 14.66 3 15 C3 15.66 3 16.32 3 17 C4.32 17.33 5.64 17.66 7 18 C7 18.66 7 19.32 7 20 C3.8125 20.3125 3.8125 20.3125 0 20 C-3.87949018 16.79520377 -5.80826445 14.69366403 -6.375 9.6875 C-5.90786625 5.09401813 -4.47959782 3.88552015 -1 1 C-0.67 0.67 -0.34 0.34 0 0 Z " fill="#2A333E" transform="translate(89,12)"/>
<path d="M0 0 C0.66 0.33 1.32 0.66 2 1 C2.08955898 4.22412329 1.77827844 6.88688623 1 10 C2.05270463 11.15811388 2.05270463 11.15811388 4 12 C4 12.66 4 13.32 4 14 C3.01 14 2.02 14 1 14 C0.67 15.32 0.34 16.64 0 18 C0.99 17.67 1.98 17.34 3 17 C2.67 18.65 2.34 20.3 2 22 C1.01 22 0.02 22 -1 22 C-0.67 23.32 -0.34 24.64 0 26 C-0.66 26.33 -1.32 26.66 -2 27 C-2.66 26.67 -3.32 26.34 -4 26 C-4 24.68 -4 23.36 -4 22 C-4.66 22.66 -5.32 23.32 -6 24 C-5.38545304 20.00544473 -3.29353263 17.25533664 -1 14 C-2.65 13.67 -4.3 13.34 -6 13 C-5.47599609 11.96939453 -5.47599609 11.96939453 -4.94140625 10.91796875 C-4.48636719 10.01691406 -4.03132813 9.11585937 -3.5625 8.1875 C-3.11003906 7.29417969 -2.65757812 6.40085937 -2.19140625 5.48046875 C-0.9168395 2.96000522 -0.9168395 2.96000522 0 0 Z " fill="#28313F" transform="translate(270,69)"/>
<path d="M0 0 C3.465 1.98 3.465 1.98 7 4 C6.01 4.495 6.01 4.495 5 5 C4.855625 5.639375 4.71125 6.27875 4.5625 6.9375 C4 9 4 9 1 11 C1 11.99 1 12.98 1 14 C1.99 13.67 2.98 13.34 4 13 C3 16 3 16 1.3125 16.9375 C-2.25736802 17.03398292 -4.22555895 15.08083079 -7 13 C-6.34 12.01 -5.68 11.02 -5 10 C-3.68 10 -2.36 10 -1 10 C-1 9.34 -1 8.68 -1 8 C-1.66 7.67 -2.32 7.34 -3 7 C-3.33 7.66 -3.66 8.32 -4 9 C-4.33 8.34 -4.66 7.68 -5 7 C-3.66666667 5.66666667 -2.33333333 4.33333333 -1 3 C-0.67 2.01 -0.34 1.02 0 0 Z " fill="#272F3D" transform="translate(316,40)"/>
<path d="M0 0 C0.33 0.99 0.66 1.98 1 3 C-0.4375 5.1875 -0.4375 5.1875 -2 7 C-1.34 7.33 -0.68 7.66 0 8 C-2.45699392 10.63249349 -4.56568654 12.78137264 -8 14 C-8.99 13.67 -9.98 13.34 -11 13 C-10.67 12.34 -10.34 11.68 -10 11 C-11.32 10.67 -12.64 10.34 -14 10 C-13.67 9.34 -13.34 8.68 -13 8 C-12.34 8 -11.68 8 -11 8 C-10.67 7.34 -10.34 6.68 -10 6 C-9.67 5.67 -9.34 5.34 -9 5 C-9.99 5 -10.98 5 -12 5 C-12.33 5.66 -12.66 6.32 -13 7 C-13.99 6.34 -14.98 5.68 -16 5 C-15.67 4.34 -15.34 3.68 -15 3 C-11.6875 2.75 -11.6875 2.75 -8 3 C-6.1875 5 -6.1875 5 -5 7 C-4.34 7 -3.68 7 -3 7 C-2.87625 6.401875 -2.7525 5.80375 -2.625 5.1875 C-2 3 -2 3 0 0 Z " fill="#1D2534" transform="translate(190,49)"/>
<path d="M0 0 C2.29141286 -0.05384521 4.58318188 -0.09272087 6.875 -0.125 C8.78925781 -0.15980469 8.78925781 -0.15980469 10.7421875 -0.1953125 C14 0 14 0 16 2 C14.68 4.31 13.36 6.62 12 9 C8.04 9 4.08 9 0 9 C0 8.67 0 8.34 0 8 C2.97 8 5.94 8 9 8 C6.69 7.34 4.38 6.68 2 6 C2.66 4.68 3.32 3.36 4 2 C2.68 1.34 1.36 0.68 0 0 Z " fill="#1E2C44" transform="translate(400,12)"/>
<path d="M0 0 C1.093125 0.37125 2.18625 0.7425 3.3125 1.125 C5.63944964 1.50031446 7.97226685 1.84417202 10.3125 2.125 C10.3125 3.79166667 10.3125 5.45833333 10.3125 7.125 C7.21201072 8.67524464 4.73355782 8.41492015 1.3125 8.125 C-1.67106441 6.30891731 -3.30410986 5.18669578 -4.5 1.875 C-4.561875 1.2975 -4.62375 0.72 -4.6875 0.125 C-2.6875 -0.875 -2.6875 -0.875 0 0 Z " fill="#262D39" transform="translate(53.6875,23.875)"/>
<path d="M0 0 C3.4367294 0.85918235 5.68312406 1.72481826 8.375 4.0625 C10.55033368 7.99483395 10.74666094 11.58080911 10 16 C9.34 16.66 8.68 17.32 8 18 C7.71125 16.7625 7.4225 15.525 7.125 14.25 C5.92471797 9.49923334 5.20642932 6.80428621 1 4 C0.01 4 -0.98 4 -2 4 C-1.34 2.68 -0.68 1.36 0 0 Z " fill="#ECF0F1" transform="translate(338,65)"/>
<path d="M0 0 C1.32 0.66 2.64 1.32 4 2 C3.02640613 5.27481575 2.30933359 6.76205109 -0.4375 8.875 C-3 10 -3 10 -6 9 C-6 6.69 -6 4.38 -6 2 C-4.02 1.67 -2.04 1.34 0 1 C0 0.67 0 0.34 0 0 Z " fill="#252C3A" transform="translate(30,56)"/>
<path d="M0 0 C-1.1446875 0.680625 -1.1446875 0.680625 -2.3125 1.375 C-4.23632814 2.53824492 -6.12941224 3.7529415 -8 5 C-7.67 5.99 -7.34 6.98 -7 8 C-8.65 8.66 -10.3 9.32 -12 10 C-12 10.66 -12 11.32 -12 12 C-12.66 12 -13.32 12 -14 12 C-14 9.03 -14 6.06 -14 3 C-12.42274653 2.29866401 -10.83788667 1.614417 -9.25 0.9375 C-7.92742187 0.36322266 -7.92742187 0.36322266 -6.578125 -0.22265625 C-3.84743691 -1.04600008 -2.63098653 -0.9773992 0 0 Z " fill="#2C3748" transform="translate(396,14)"/>
<path d="M0 0 C2 0.3125 2 0.3125 4 1 C5.38550197 3.77100394 5.1877467 5.9334706 5 9 C3 12 3 12 0.875 12.6875 C0.25625 12.790625 -0.3625 12.89375 -1 13 C-1 11 -1 11 0 10 C-0.66 9.34 -1.32 8.68 -2 8 C-1.42307692 1.42307692 -1.42307692 1.42307692 0 0 Z " fill="#2D303D" transform="translate(98,16)"/>
<path d="M0 0 C0.66 0.66 1.32 1.32 2 2 C4.61941217 3.74627478 6.03824877 4.38722388 9 5 C9.33 6.32 9.66 7.64 10 9 C5.38 9 0.76 9 -4 9 C-4 7.68 -4 6.36 -4 5 C-3.01 5 -2.02 5 -1 5 C-0.67 3.35 -0.34 1.7 0 0 Z " fill="#1B222E" transform="translate(184,91)"/>
<path d="M0 0 C0.33 0.66 0.66 1.32 1 2 C-0.32 2 -1.64 2 -3 2 C-3.33 2.99 -3.66 3.98 -4 5 C-4.33 5.33 -4.66 5.66 -5 6 C-4.01 7.485 -4.01 7.485 -3 9 C-3.99 9.66 -4.98 10.32 -6 11 C-6.99 9.68 -7.98 8.36 -9 7 C-9.66 7.66 -10.32 8.32 -11 9 C-11 5 -11 5 -8.875 2.25 C-5.55930365 -0.3448928 -4.09885218 -0.47661072 0 0 Z " fill="#262E3E" transform="translate(27,46)"/>
<path d="M0 0 C1.32 0.33 2.64 0.66 4 1 C4.33 2.65 4.66 4.3 5 6 C1.68929162 7.00109515 -1.30084769 7.10356134 -4.75 7.0625 C-5.73484375 7.05347656 -6.7196875 7.04445313 -7.734375 7.03515625 C-8.48203125 7.02355469 -9.2296875 7.01195313 -10 7 C-10 6.34 -10 5.68 -10 5 C-3.375 2 -3.375 2 0 2 C0 1.34 0 0.68 0 0 Z " fill="#273141" transform="translate(253,95)"/>
<path d="M0 0 C1.65 0 3.3 0 5 0 C3.34908222 4.29238623 0.26245434 6.8793915 -3 10 C-4.32 9.34 -5.64 8.68 -7 8 C-6.67 6.68 -6.34 5.36 -6 4 C-4.35 3.67 -2.7 3.34 -1 3 C-0.67 2.01 -0.34 1.02 0 0 Z " fill="#313442" transform="translate(353,22)"/>
<path d="M0 0 C2.97 0.495 2.97 0.495 6 1 C5.59007812 1.47050781 5.18015625 1.94101563 4.7578125 2.42578125 C3.94957031 3.35970703 3.94957031 3.35970703 3.125 4.3125 C2.59132813 4.92738281 2.05765625 5.54226562 1.5078125 6.17578125 C-0.1640447 8.13498212 -0.1640447 8.13498212 -2 11 C-3.32 10.34 -4.64 9.68 -6 9 C-4.68 6.69 -3.36 4.38 -2 2 C-1.34 2 -0.68 2 0 2 C0 1.34 0 0.68 0 0 Z " fill="#303B54" transform="translate(398,79)"/>
<path d="M0 0 C2.97 0.495 2.97 0.495 6 1 C5.67 2.32 5.34 3.64 5 5 C2 5 -1 5 -4 5 C-3.7215625 6.175625 -3.7215625 6.175625 -3.4375 7.375 C-3 10 -3 10 -4 12 C-3.01 12.33 -2.02 12.66 -1 13 C-6.41538462 13.36923077 -6.41538462 13.36923077 -9.375 11.5 C-9.91125 11.005 -10.4475 10.51 -11 10 C-10.67 9.34 -10.34 8.68 -10 8 C-8.515 8.99 -8.515 8.99 -7 10 C-6.67 10 -6.34 10 -6 10 C-6 7.69 -6 5.38 -6 3 C-4.02 2.67 -2.04 2.34 0 2 C0 1.34 0 0.68 0 0 Z " fill="#1A202E" transform="translate(28,53)"/>
<path d="M0 0 C0.33 0 0.66 0 1 0 C1.48404486 4.06597681 1.1191537 5.79892813 -1 9.375 C-4.02609628 12.02283425 -4.46487423 12.40506965 -8.1875 12.5 C-12 12 -12 12 -14 10 C-13.67 9.34 -13.34 8.68 -13 8 C-8.25 7.875 -8.25 7.875 -6 9 C-5.54625 8.54625 -5.0925 8.0925 -4.625 7.625 C-3.41666667 6.41666667 -2.20833333 5.20833333 -1 4 C-0.3574765 1.93125966 -0.3574765 1.93125966 0 0 Z " fill="#1D202F" transform="translate(67,88)"/>
<path d="M0 0 C1.32 0.66 2.64 1.32 4 2 C3.67 3.32 3.34 4.64 3 6 C1.35 6 -0.3 6 -2 6 C-2.66 7.98 -3.32 9.96 -4 12 C-4.99 11.67 -5.98 11.34 -7 11 C-7.33 10.01 -7.66 9.02 -8 8 C-5.36 5.36 -2.72 2.72 0 0 Z " fill="#1E2430" transform="translate(307,79)"/>
<path d="M0 0 C0.33 1.32 0.66 2.64 1 4 C0.01 4.66 -0.98 5.32 -2 6 C-2.58348752 8.6556728 -2.58348752 8.6556728 -2.6875 11.625 C-2.75324219 12.62789062 -2.81898438 13.63078125 -2.88671875 14.6640625 C-2.92410156 15.43492188 -2.96148437 16.20578125 -3 17 C-3.33 17 -3.66 17 -4 17 C-4.33 14.69 -4.66 12.38 -5 10 C-5.99 10.495 -5.99 10.495 -7 11 C-6.58485103 6.1565954 -4.53791301 4.18412171 -1 1 C-0.67 0.67 -0.34 0.34 0 0 Z " fill="#D3D8DE" transform="translate(385,82)"/>
<path d="M0 0 C2.97 0.495 2.97 0.495 6 1 C6 2.65 6 4.3 6 6 C4.02 6 2.04 6 0 6 C0 6.66 0 7.32 0 8 C-1.32 7.67 -2.64 7.34 -4 7 C-4 6.34 -4 5.68 -4 5 C-2.66666667 4 -1.33333333 3 0 2 C0 1.34 0 0.68 0 0 Z " fill="#2B3141" transform="translate(332,48)"/>
<path d="M0 0 C-1.3125 1.5 -1.3125 1.5 -3 3 C-3.99 3 -4.98 3 -6 3 C-8.16976546 4.82260298 -9.40540668 6.60811001 -11 9 C-11.75 6.75 -11.75 6.75 -12 4 C-8.90364316 -0.98109579 -5.31710044 -0.35447336 0 0 Z " fill="#1F2530" transform="translate(96,81)"/>
<path d="M0 0 C2.76223278 2.76223278 2.57856291 5.20706617 3 9 C2.01 8.67 1.02 8.34 0 8 C-2.0745356 7.8509288 -2.0745356 7.8509288 -4 9 C-4.33 7.68 -4.66 6.36 -5 5 C-4.34 4.67 -3.68 4.34 -3 4 C-2.34 3.01 -1.68 2.02 -1 1 C-0.67 0.67 -0.34 0.34 0 0 Z " fill="#2D3542" transform="translate(358,63)"/>
<path d="M0 0 C0.99 0.33 1.98 0.66 3 1 C3 1.66 3 2.32 3 3 C4.98 3 6.96 3 9 3 C9 3.33 9 3.66 9 4 C12.3 4.33 15.6 4.66 19 5 C19 5.33 19 5.66 19 6 C16.79194476 6.0544452 14.58349446 6.09299283 12.375 6.125 C11.14523437 6.14820312 9.91546875 6.17140625 8.6484375 6.1953125 C5.05683959 6.0030428 2.33338825 5.30258556 -1 4 C-0.67 2.68 -0.34 1.36 0 0 Z " fill="#474C58" transform="translate(317,96)"/>
<path d="M0 0 C2 2 2 2 2.3125 5 C2.209375 5.99 2.10625 6.98 2 8 C1.01 8.66 0.02 9.32 -1 10 C-1.66 9.67 -2.32 9.34 -3 9 C-2.25 2.25 -2.25 2.25 0 0 Z " fill="#1E2631" transform="translate(52,83)"/>
<path d="M0 0 C2.475 0.99 2.475 0.99 5 2 C4.67 3.65 4.34 5.3 4 7 C3.01 7 2.02 7 1 7 C0.67 7.99 0.34 8.98 0 10 C-0.99 9.34 -1.98 8.68 -3 8 C-3 7.34 -3 6.68 -3 6 C-2.34 5.67 -1.68 5.34 -1 5 C-1 4.01 -1 3.02 -1 2 C-0.67 2 -0.34 2 0 2 C0 1.34 0 0.68 0 0 Z " fill="#1C2635" transform="translate(220,73)"/>
<path d="M0 0 C0.763125 0.309375 1.52625 0.61875 2.3125 0.9375 C4.18789677 1.67893593 6.08684652 2.36228217 8 3 C8 3.66 8 4.32 8 5 C8.66 5.33 9.32 5.66 10 6 C8.68 6.33 7.36 6.66 6 7 C5.67 6.01 5.34 5.02 5 4 C3.02 4.33 1.04 4.66 -1 5 C-1 2 -1 2 0 0 Z " fill="#2E3C4E" transform="translate(420,46)"/>
<path d="M0 0 C0.66 0.99 1.32 1.98 2 3 C2.99 3.33 3.98 3.66 5 4 C3.3125 5.5625 3.3125 5.5625 1 7 C-1.75 6.6875 -1.75 6.6875 -4 6 C-4.33 6.66 -4.66 7.32 -5 8 C-5 5 -5 5 -2.5 2.3125 C-1.675 1.549375 -0.85 0.78625 0 0 Z " fill="#1D2A41" transform="translate(409,61)"/>
<path d="M0 0 C2.31 0 4.62 0 7 0 C7 1.65 7 3.3 7 5 C5.35 4.67 3.7 4.34 2 4 C1.67 4.66 1.34 5.32 1 6 C0 1.125 0 1.125 0 0 Z " fill="#1B2030" transform="translate(55,81)"/>
<path d="M0 0 C1.35158203 0.15275391 1.35158203 0.15275391 2.73046875 0.30859375 C3.41753906 0.39238281 4.10460937 0.47617188 4.8125 0.5625 C2.8125 2.5625 2.8125 2.5625 0.2109375 2.7578125 C-0.78679687 2.73460938 -1.78453125 2.71140625 -2.8125 2.6875 C-4.31683594 2.66042969 -4.31683594 2.66042969 -5.8515625 2.6328125 C-6.62242187 2.60960938 -7.39328125 2.58640625 -8.1875 2.5625 C-8.1875 1.9025 -8.1875 1.2425 -8.1875 0.5625 C-4.98734144 -0.50421952 -3.30205706 -0.38595472 0 0 Z " fill="#353B46" transform="translate(251.1875,99.4375)"/>
<path d="M0 0 C0.66 1.32 1.32 2.64 2 4 C1.360625 4.268125 0.72125 4.53625 0.0625 4.8125 C-2.33131686 5.88667752 -2.33131686 5.88667752 -3 9 C-4.32 9 -5.64 9 -7 9 C-5.44499019 5.18315774 -2.96404505 2.80804268 0 0 Z " fill="#DBE1E6" transform="translate(411,72)"/>
<path d="M0 0 C1.32 1.32 2.64 2.64 4 4 C3.67 4.99 3.34 5.98 3 7 C1.68 6.67 0.36 6.34 -1 6 C-1.33 4.35 -1.66 2.7 -2 1 C-1.34 0.67 -0.68 0.34 0 0 Z " fill="#2A303E" transform="translate(30,48)"/>
<path d="M0 0 C0.66 0.33 1.32 0.66 2 1 C0.68 3.64 -0.64 6.28 -2 9 C-2.66 8.67 -3.32 8.34 -4 8 C-4 5.69 -4 3.38 -4 1 C-3.34 1.66 -2.68 2.32 -2 3 C-1.34 2.01 -0.68 1.02 0 0 Z " fill="#2F3640" transform="translate(87,86)"/>
<path d="M0 0 C0.66 0 1.32 0 2 0 C2.49230769 6.4 2.49230769 6.4 0 9.4375 C-0.99 10.2109375 -0.99 10.2109375 -2 11 C-2 7.79604584 -1.25664978 5.90600261 0 3 C-0.66 2.67 -1.32 2.34 -2 2 C-1.34 1.34 -0.68 0.68 0 0 Z " fill="#1E222C" transform="translate(66,19)"/>
<path d="M0 0 C5 2 5 2 10 4 C9.67 4.66 9.34 5.32 9 6 C5.26512223 5.5020163 3.18762365 5.12508244 0 3 C0 2.01 0 1.02 0 0 Z " fill="#EBF0F2" transform="translate(306,95)"/>
<path d="M0 0 C0.33 0.66 0.66 1.32 1 2 C1.66 2.33 2.32 2.66 3 3 C2.01 3.99 1.02 4.98 0 6 C-2.88437779 4.70700306 -4.87219421 3.34058637 -7 1 C-3.535 0.505 -3.535 0.505 0 0 Z " fill="#EEEEEF" transform="translate(97,65)"/>
<path d="M0 0 C0.33 0 0.66 0 1 0 C2.33898305 5.3559322 2.33898305 5.3559322 0.75 8.375 C-1 10 -1 10 -4 10 C-3.71125 9.46375 -3.4225 8.9275 -3.125 8.375 C-1.83288192 5.64719516 -0.91441408 2.87387282 0 0 Z " fill="#2B2F3D" transform="translate(192,46)"/>
<path d="M0 0 C0.66 0.99 1.32 1.98 2 3 C1.01 4.485 1.01 4.485 0 6 C0 6.99 0 7.98 0 9 C-2.97 8.505 -2.97 8.505 -6 8 C-4.73046875 6.50260417 -3.4609375 5.00520833 -2.19140625 3.5078125 C-0.9121848 1.99405921 -0.9121848 1.99405921 0 0 Z " fill="#303941" transform="translate(182,44)"/>
<path d="M0 0 C0.66 0 1.32 0 2 0 C0.68 5.28 -0.64 10.56 -2 16 C-2.33 16 -2.66 16 -3 16 C-3.19361753 10.48190035 -2.81170643 6.22197736 -1 1 C-0.67 0.67 -0.34 0.34 0 0 Z " fill="#E1E5EB" transform="translate(215,32)"/>
<path d="M0 0 C1.32 1.32 2.64 2.64 4 4 C3 5 2 6 1 7 C0.34 7 -0.32 7 -1 7 C-1.66 5.35 -2.32 3.7 -3 2 C-2.01 1.34 -1.02 0.68 0 0 Z " fill="#29303F" transform="translate(180,92)"/>
<path d="M0 0 C1.32 0 2.64 0 4 0 C3.67 0.99 3.34 1.98 3 3 C3 3.99 3 4.98 3 6 C1.35 5.67 -0.3 5.34 -2 5 C-1.34 3.35 -0.68 1.7 0 0 Z M-3 6 C-2.34 6 -1.68 6 -1 6 C-1.33 6.99 -1.66 7.98 -2 9 C-2.33 8.01 -2.66 7.02 -3 6 Z " fill="#2D3344" transform="translate(225,74)"/>
<path d="M0 0 C3.375 0.6875 3.375 0.6875 7 2 C8.5625 4.4375 8.5625 4.4375 9 7 C8.01 8.485 8.01 8.485 7 10 C6.38125 8.63875 6.38125 8.63875 5.75 7.25 C4.10949282 4.20334382 2.55281639 2.28873194 0 0 Z " fill="#171F2A" transform="translate(341,65)"/>
<path d="M0 0 C0.99 0.33 1.98 0.66 3 1 C3.6875 3.3125 3.6875 3.3125 4 6 C2.5625 7.8125 2.5625 7.8125 1 9 C0.01 8.01 -0.98 7.02 -2 6 C-1.34 5.34 -0.68 4.68 0 4 C0.66 4.33 1.32 4.66 2 5 C1.34 3.35 0.68 1.7 0 0 Z " fill="#2B343F" transform="translate(98,55)"/>
<path d="M0 0 C0.33 0 0.66 0 1 0 C1.33 3.3 1.66 6.6 2 10 C0.02 10.33 -1.96 10.66 -4 11 C-3.525625 10.29875 -3.05125 9.5975 -2.5625 8.875 C-0.91260143 5.83918663 -0.39631536 3.40831214 0 0 Z " fill="#DBDEE2" transform="translate(68,20)"/>
<path d="M0 0 C0.66 1.32 1.32 2.64 2 4 C0.68 5.32 -0.64 6.64 -2 8 C-2.99 7.67 -3.98 7.34 -5 7 C-4.67 6.01 -4.34 5.02 -4 4 C-3.34 4 -2.68 4 -2 4 C-1.34 2.68 -0.68 1.36 0 0 Z " fill="#212930" transform="translate(273,86)"/>
<path d="M0 0 C2.0625 0.4375 2.0625 0.4375 4 1 C2.4198632 3.15473199 0.89353366 5.10646634 -1 7 C-1.66 6.67 -2.32 6.34 -3 6 C-1.125 1.125 -1.125 1.125 0 0 Z " fill="#E5E9EA" transform="translate(299,83)"/>
<path d="M0 0 C3.375 0.3125 3.375 0.3125 7 1 C7.66 1.99 8.32 2.98 9 4 C6.03 4 3.06 4 0 4 C0 2.68 0 1.36 0 0 Z " fill="#1B1E2A" transform="translate(91,12)"/>
<path d="M0 0 C0.99 0.33 1.98 0.66 3 1 C3.90837763 3.47739354 4 5.33579484 4 8 C3.01 8 2.02 8 1 8 C0.67 5.36 0.34 2.72 0 0 Z " fill="#1C2029" transform="translate(49,54)"/>
<path d="M0 0 C0.99 0 1.98 0 3 0 C3 3 3 3 2 6 C-0.0625 6.6875 -0.0625 6.6875 -2 7 C-1.125 1.125 -1.125 1.125 0 0 Z " fill="#253140" transform="translate(185,50)"/>
<path d="M0 0 C1.9375 0.3125 1.9375 0.3125 4 1 C4.33 1.99 4.66 2.98 5 4 C2.36 4 -0.28 4 -3 4 C-2.01 2.68 -1.02 1.36 0 0 Z " fill="#F1F4FA" transform="translate(399,85)"/>
<path d="M0 0 C2.64 0 5.28 0 8 0 C8.66 1.32 9.32 2.64 10 4 C6.13304322 4 3.4911548 2.58090029 0 1 C0 0.67 0 0.34 0 0 Z " fill="#1E212D" transform="translate(21,81)"/>
<path d="M0 0 C0.99 1.32 1.98 2.64 3 4 C1.625 5.5 1.625 5.5 0 7 C-0.66 7 -1.32 7 -2 7 C-2.33 6.01 -2.66 5.02 -3 4 C-1.5625 1.8125 -1.5625 1.8125 0 0 Z " fill="#F2F4F4" transform="translate(189,78)"/>
<path d="M0 0 C0.33 0 0.66 0 1 0 C1.05399736 1.45792884 1.09279177 2.91642712 1.125 4.375 C1.14820313 5.18710938 1.17140625 5.99921875 1.1953125 6.8359375 C1 9 1 9 -1 11 C-2 5.25 -2 5.25 -2 3 C-1.34 3 -0.68 3 0 3 C0 2.01 0 1.02 0 0 Z " fill="#E0E6EA" transform="translate(347,72)"/>
<path d="M0 0 C1.42944945 2.35438733 2.08661261 3.48032433 1.625 6.25 C1.41875 6.8275 1.2125 7.405 1 8 C0.34 8 -0.32 8 -1 8 C-1.33 6.02 -1.66 4.04 -2 2 C-1.34 2 -0.68 2 0 2 C0 1.34 0 0.68 0 0 Z " fill="#F1F4F8" transform="translate(230,69)"/>
<path d="M0 0 C0.98120464 3.05263664 0.98120464 4.94736336 0 8 C-2 6.1875 -2 6.1875 -4 4 C-4 3.01 -4 2.02 -4 1 C-2.68 1.33 -1.36 1.66 0 2 C0 1.34 0 0.68 0 0 Z " fill="#262F3F" transform="translate(22,57)"/>
<path d="M0 0 C1.32 0.66 2.64 1.32 4 2 C4 2.99 4 3.98 4 5 C2.35 4.67 0.7 4.34 -1 4 C-1 1 -1 1 0 0 Z " fill="#EEF1F4" transform="translate(342,27)"/>
<path d="M0 0 C1.65 0 3.3 0 5 0 C5 1.32 5 2.64 5 4 C3.02 4.33 1.04 4.66 -1 5 C-0.67 4.34 -0.34 3.68 0 3 C-0.33 2.67 -0.66 2.34 -1 2 C-0.67 1.34 -0.34 0.68 0 0 Z " fill="#181D27" transform="translate(22,12)"/>
<path d="M0 0 C1.98 0.99 3.96 1.98 6 3 C5.01 3.99 4.02 4.98 3 6 C1.68 5.01 0.36 4.02 -1 3 C-0.67 2.01 -0.34 1.02 0 0 Z " fill="#EAF0EE" transform="translate(234,80)"/>
<path d="M0 0 C2.97 0.495 2.97 0.495 6 1 C5.01 2.32 4.02 3.64 3 5 C2.01 4.67 1.02 4.34 0 4 C0 2.68 0 1.36 0 0 Z " fill="#373E4C" transform="translate(398,79)"/>
<path d="M0 0 C0.99 0.66 1.98 1.32 3 2 C2.34 2 1.68 2 1 2 C1 2.66 1 3.32 1 4 C-1.31 4 -3.62 4 -6 4 C-6 3.34 -6 2.68 -6 2 C-3.1875 0.875 -3.1875 0.875 0 0 Z " fill="#292F3D" transform="translate(342,86)"/>
<path d="M0 0 C-0.1875 1.875 -0.1875 1.875 -1 4 C-3.5625 5.25 -3.5625 5.25 -6 6 C-3.84615385 0 -3.84615385 0 0 0 Z " fill="#F0F2F4" transform="translate(262,81)"/>
<path d="M0 0 C1.98 0 3.96 0 6 0 C6.33 0.66 6.66 1.32 7 2 C5.68 2 4.36 2 3 2 C2.67 2.99 2.34 3.98 2 5 C1.34 4.34 0.68 3.68 0 3 C0 2.01 0 1.02 0 0 Z " fill="#353841" transform="translate(21,46)"/>
<path d="M0 0 C0.66 0.33 1.32 0.66 2 1 C1.67 1.99 1.34 2.98 1 4 C-2.0625 5.1875 -2.0625 5.1875 -5 6 C-5 5.34 -5 4.68 -5 4 C-4.34 4 -3.68 4 -3 4 C-3 3.34 -3 2.68 -3 2 C-2.01 1.34 -1.02 0.68 0 0 Z " fill="#282F40" transform="translate(387,22)"/>
<path d="M0 0 C0.33 0 0.66 0 1 0 C1 2.97 1 5.94 1 9 C0.01 8.01 -0.98 7.02 -2 6 C-1.57894737 1.57894737 -1.57894737 1.57894737 0 0 Z " fill="#3A3D50" transform="translate(434,90)"/>
<path d="M0 0 C0.81210937 0.29003906 1.62421875 0.58007812 2.4609375 0.87890625 C3.27820313 1.16636719 4.09546875 1.45382813 4.9375 1.75 C5.56398438 1.97816406 6.19046875 2.20632812 6.8359375 2.44140625 C6.1759375 3.10140625 5.5159375 3.76140625 4.8359375 4.44140625 C1.43281012 3.38265551 -1.17759481 2.43238471 -4.1640625 0.44140625 C-2.1640625 -0.55859375 -2.1640625 -0.55859375 0 0 Z " fill="#2E3240" transform="translate(22.1640625,81.55859375)"/>
<path d="M0 0 C0.33 0 0.66 0 1 0 C1.66 3.96 2.32 7.92 3 12 C2.34 12 1.68 12 1 12 C-0.3271261 8.0186217 -0.06915913 4.14954773 0 0 Z " fill="#DDE0E7" transform="translate(212,64)"/>
<path d="M0 0 C1.32 0.99 2.64 1.98 4 3 C3 6 3 6 1 8 C0.67 5.36 0.34 2.72 0 0 Z " fill="#19212A" transform="translate(354,59)"/>
<path d="M0 0 C0.99 0.33 1.98 0.66 3 1 C3 2.32 3 3.64 3 5 C2.01 5 1.02 5 0 5 C-0.33 5.66 -0.66 6.32 -1 7 C-1.04254356 5.00045254 -1.04080783 2.99958364 -1 1 C-0.67 0.67 -0.34 0.34 0 0 Z " fill="#2F353E" transform="translate(84,52)"/>
<path d="M0 0 C0.99 0.33 1.98 0.66 3 1 C3 1.66 3 2.32 3 3 C0.04335481 4.4783226 -2.74229737 4.06032783 -6 4 C-3 2 -3 2 0 2 C0 1.34 0 0.68 0 0 Z " fill="#353B43" transform="translate(61,28)"/>
<path d="M0 0 C-2.97180943 1.89865603 -5.51460083 3.35455571 -9 4 C-8.1875 2.0625 -8.1875 2.0625 -7 0 C-3.86650268 -1.04449911 -3.01031744 -0.93423645 0 0 Z " fill="#374252" transform="translate(396,14)"/>
<path d="M0 0 C1.875 0.3125 1.875 0.3125 4 1 C4.66 1.99 5.32 2.98 6 4 C2.25 5.125 2.25 5.125 0 4 C0 2.68 0 1.36 0 0 Z " fill="#F3F3F7" transform="translate(229,10)"/>
<path d="M0 0 C2.33944736 0.28730055 4.6739143 0.61936779 7 1 C4.8614515 3.1385485 3.86724686 3.42655063 1 4 C1 3.34 1 2.68 1 2 C0.34 1.67 -0.32 1.34 -1 1 C-0.67 0.67 -0.34 0.34 0 0 Z " fill="#1C2332" transform="translate(18,83)"/>
<path d="M0 0 C0.66 0.99 1.32 1.98 2 3 C0.35 4.32 -1.3 5.64 -3 7 C-3.33 6.01 -3.66 5.02 -4 4 C-2.68 3.34 -1.36 2.68 0 2 C0 1.34 0 0.68 0 0 Z " fill="#E7ECF3" transform="translate(396,70)"/>
<path d="M0 0 C0.99 0.33 1.98 0.66 3 1 C3.33 1.99 3.66 2.98 4 4 C2.68 4.99 1.36 5.98 0 7 C-0.93423645 3.98968256 -1.04449911 3.13349732 0 0 Z " fill="#33404C" transform="translate(417,59)"/>
<path d="M0 0 C3.82097239 0.53069061 6.06171403 1.49701566 9 4 C8.67 4.66 8.34 5.32 8 6 C6.66402348 5.19185349 5.331275 4.37836819 4 3.5625 C3.2575 3.11003906 2.515 2.65757813 1.75 2.19140625 C1.1725 1.79824219 0.595 1.40507812 0 1 C0 0.67 0 0.34 0 0 Z " fill="#E1E5EA" transform="translate(254,25)"/>
<path d="M0 0 C-1.65 1.32 -3.3 2.64 -5 4 C-5.33 2.68 -5.66 1.36 -6 0 C-3.50907189 -1.24546405 -2.58919267 -0.7767578 0 0 Z " fill="#E1E1E5" transform="translate(227,19)"/>
</svg>
