<?xml version="1.0" standalone="no"?>
<!DOCTYPE svg PUBLIC "-//W3C//DTD SVG 20010904//EN"
 "http://www.w3.org/TR/2001/REC-SVG-20010904/DTD/svg10.dtd">
<svg version="1.0" xmlns="http://www.w3.org/2000/svg"
 width="1254.000000pt" height="1254.000000pt" viewBox="0 0 1254.000000 1254.000000"
 preserveAspectRatio="xMidYMid meet">

<g transform="translate(0.000000,1254.000000) scale(0.100000,-0.100000)"
fill="#000000" stroke="none">
<path d="M2848 8639 c-17 -9 -18 -133 -18 -2369 0 -2322 0 -2359 19 -2370 27
-14 935 -14 962 0 19 10 19 30 19 825 l0 815 394 0 393 0 195 -312 c107 -172
334 -536 503 -808 169 -272 316 -503 327 -512 19 -17 60 -18 548 -18 467 0
530 2 544 16 9 8 16 19 16 23 0 16 -516 850 -908 1468 -161 253 -178 281 -171
286 2 2 29 14 59 26 560 232 905 807 877 1461 -10 220 -48 389 -133 590 -173
412 -528 711 -980 826 -235 59 -196 57 -1464 61 -801 2 -1170 0 -1182 -8z
m2212 -923 c244 -44 431 -204 503 -431 18 -59 22 -93 22 -210 0 -126 -3 -147
-27 -213 -38 -104 -83 -176 -158 -252 -104 -103 -228 -165 -380 -189 -40 -7
-283 -11 -627 -11 l-563 0 0 653 c0 360 3 657 7 660 3 4 263 7 577 7 434 -1
589 -4 646 -14z"/>
<path d="M6917 8632 c-16 -17 -17 -196 -17 -2364 0 -2259 1 -2346 18 -2361 17
-15 63 -17 461 -17 286 0 449 4 462 10 19 10 19 30 19 820 l0 810 468 0 c514
1 677 8 829 39 303 62 573 202 773 400 119 118 183 205 255 342 109 211 164
432 172 701 15 467 -125 859 -418 1163 -193 200 -428 331 -734 410 -224 57
-375 64 -1406 65 -826 0 -867 -1 -882 -18z m1993 -926 c121 -33 208 -83 295
-171 131 -130 185 -262 185 -451 0 -182 -58 -338 -170 -458 -72 -77 -140 -123
-233 -160 -131 -52 -180 -56 -673 -56 l-454 0 0 653 c0 360 3 657 7 661 4 4
226 6 493 3 426 -3 493 -6 550 -21z"/>
</g>
</svg>
