<?xml version="1.0" standalone="no"?>
<!DOCTYPE svg PUBLIC "-//W3C//DTD SVG 20010904//EN"
 "http://www.w3.org/TR/2001/REC-SVG-20010904/DTD/svg10.dtd">
<svg version="1.0" xmlns="http://www.w3.org/2000/svg"
 width="225.000000pt" height="225.000000pt" viewBox="0 0 225.000000 225.000000"
 preserveAspectRatio="xMidYMid meet">

<g transform="translate(0.000000,225.000000) scale(0.100000,-0.100000)"
fill="#000000" stroke="none">
<path d="M0 1125 l0 -1125 1125 0 1125 0 0 1125 0 1125 -1125 0 -1125 0 0
-1125z m700 1047 c0 -10 -6 -27 -14 -38 -55 -77 -61 -284 -13 -385 31 -64 33
-79 11 -79 -8 0 -22 17 -31 38 -58 137 -58 307 0 445 16 38 47 51 47 19z m899
-32 c58 -134 54 -317 -10 -441 -16 -32 -23 -38 -34 -29 -11 9 -8 22 17 77 25
53 32 82 36 157 4 80 1 100 -22 166 -39 108 -41 120 -23 120 8 0 24 -22 36
-50z m-775 -65 c3 -8 -2 -31 -10 -51 -20 -47 -20 -141 0 -188 16 -38 12 -70
-8 -63 -23 7 -41 64 -44 143 -3 66 0 91 16 128 21 47 36 57 46 31z m651 -47
c25 -86 17 -195 -19 -243 -11 -15 -18 -17 -26 -9 -9 9 -8 23 4 58 20 60 20
135 0 186 -13 32 -14 43 -4 55 18 21 27 11 45 -47z m-523 -43 c-3 -36 -2 -81
1 -115 1 -16 -4 -26 -16 -28 -19 -4 -47 49 -47 88 0 39 28 92 47 88 13 -3 17
-12 15 -33z m388 9 c24 -63 3 -165 -31 -152 -11 4 -14 25 -13 89 2 98 0 89 19
89 9 0 20 -12 25 -26z m-170 -26 c24 -26 25 -46 5 -74 -8 -12 -12 -24 -9 -26
2 -3 -2 -11 -11 -18 -12 -10 -15 -10 -15 4 0 24 -18 19 -22 -6 -3 -20 -7 -16
-26 21 -28 57 -28 86 0 105 31 22 54 20 78 -6z m-66 -143 c3 -8 -3 -19 -14
-25 -28 -15 -31 -13 -18 15 13 28 23 32 32 10z m79 -7 c8 -29 3 -32 -23 -18
-17 9 -19 14 -9 26 16 20 26 18 32 -8z m-67 -50 c-3 -13 -6 -30 -6 -38 -1 -11
-6 -8 -20 9 -25 29 -25 38 -2 44 32 9 34 7 28 -15z m72 7 c6 -5 -30 -55 -39
-55 -5 0 -9 16 -9 36 0 32 2 35 23 28 12 -3 23 -8 25 -9z m-78 -95 c0 -3 -25
-18 -56 -33 l-56 -28 8 23 c4 13 16 43 26 68 l19 45 29 -35 c16 -19 30 -37 30
-40z m125 10 c9 -25 19 -50 22 -57 3 -7 -21 -1 -56 14 l-60 26 31 39 c17 22
34 36 38 31 4 -4 15 -28 25 -53z m-125 -121 c0 -47 -4 -79 -10 -77 -5 2 -28
28 -50 58 l-41 55 48 22 c26 12 49 22 51 22 1 1 2 -35 2 -80z m126 24 c-8 -21
-70 -102 -78 -103 -5 0 -8 36 -8 80 l0 80 45 -22 c28 -14 44 -27 41 -35z
m-192 -67 c25 -33 46 -63 46 -67 0 -4 -48 -35 -106 -68 -58 -34 -104 -55 -101
-49 50 129 103 248 108 246 4 -2 28 -30 53 -62z m283 -63 c29 -70 51 -128 50
-129 -1 -1 -50 26 -109 60 l-106 62 51 67 c28 37 54 67 57 67 3 0 28 -57 57
-127z m-232 -108 l-7 -65 -110 0 c-61 0 -108 3 -104 7 13 14 221 132 225 128
2 -2 0 -34 -4 -70z m205 -6 l94 -54 -108 -3 c-81 -2 -112 1 -118 10 -4 7 -8
39 -8 72 0 58 0 58 23 44 12 -8 65 -39 117 -69z m448 -146 c-3 -27 -6 -28 -65
-31 l-63 -3 0 -57 c0 -60 -11 -82 -41 -82 -22 0 -29 20 -29 86 l0 54 -420 0
-420 0 0 -44 c0 -65 -15 -98 -42 -94 -25 4 -42 52 -36 105 l4 33 -47 0 c-26 0
-54 3 -63 6 -16 6 -22 35 -9 47 3 4 283 7 620 7 l614 0 -3 -27z m-694 -86 c22
-16 22 -20 6 -447 -14 -384 -15 -386 -29 -404 -12 -14 -49 -16 -275 -16 -276
0 -286 2 -286 46 0 18 285 757 311 805 10 20 39 25 165 27 62 1 96 -2 108 -11z
m398 4 c20 -7 48 -70 181 -410 86 -220 157 -410 157 -421 0 -10 -9 -24 -19
-30 -12 -6 -118 -10 -275 -10 -254 0 -256 0 -270 23 -11 17 -17 98 -25 347 -6
179 -14 357 -17 397 -8 103 2 111 139 112 58 1 116 -3 129 -8z m-918 -347 c22
-58 -4 -74 -118 -74 l-86 0 0 -50 0 -50 73 0 c78 0 97 -9 97 -47 0 -31 -28
-43 -104 -43 l-66 0 0 -69 c0 -91 -28 -124 -72 -84 -16 15 -18 35 -18 213 0
139 3 199 12 208 8 8 55 12 144 12 111 0 133 -3 138 -16z m1504 4 c35 -35 -1
-78 -64 -78 l-44 0 0 -165 c0 -163 0 -165 -24 -180 -19 -13 -29 -14 -45 -5
-20 10 -21 19 -21 180 l0 170 -41 0 c-55 0 -79 15 -79 49 0 15 3 31 7 34 12
13 298 8 311 -5z"/>
<path d="M720 767 c-61 -40 -75 -78 -75 -197 0 -122 18 -171 76 -205 50 -29
186 -29 225 1 55 40 68 68 68 146 l1 73 -68 3 c-78 3 -100 -8 -95 -47 2 -21 9
-27 38 -31 42 -6 50 -30 21 -59 -28 -28 -118 -29 -152 -2 -21 17 -24 30 -27
100 -6 130 16 161 115 161 37 0 50 -5 73 -30 19 -21 37 -30 59 -30 29 0 31 3
31 34 0 37 -33 80 -75 96 -15 6 -61 10 -104 10 -64 0 -84 -4 -111 -23z"/>
<path d="M1236 774 c-9 -8 -16 -19 -16 -23 0 -10 129 -361 142 -384 7 -13 19
-17 46 -15 l37 3 71 195 c54 147 69 199 62 213 -12 23 -32 31 -62 23 -21 -5
-30 -24 -66 -132 -29 -85 -45 -122 -51 -112 -4 7 -24 60 -43 117 -20 57 -41
110 -47 117 -15 19 -54 18 -73 -2z"/>
</g>
</svg>
